<svg width="16" height="16" viewBox="0 0 16 16" fill="none" xmlns="http://www.w3.org/2000/svg">
<mask id="mask0_925_1273" style="mask-type:alpha" maskUnits="userSpaceOnUse" x="0" y="0" width="16" height="16">
<rect width="16" height="16" fill="#D9D9D9"/>
</mask>
<g mask="url(#mask0_925_1273)">
<path d="M3.33333 14.6666C2.96667 14.6666 2.65278 14.536 2.39167 14.2749C2.13056 14.0138 2 13.6999 2 13.3333V3.99992C2 3.63325 2.13056 3.31936 2.39167 3.05825C2.65278 2.79714 2.96667 2.66659 3.33333 2.66659H4V1.33325H5.33333V2.66659H10.6667V1.33325H12V2.66659H12.6667C13.0333 2.66659 13.3472 2.79714 13.6083 3.05825C13.8694 3.31936 14 3.63325 14 3.99992V13.3333C14 13.6999 13.8694 14.0138 13.6083 14.2749C13.3472 14.536 13.0333 14.6666 12.6667 14.6666H3.33333ZM3.33333 13.3333H12.6667V6.66658H3.33333V13.3333ZM3.33333 5.33325H12.6667V3.99992H3.33333V5.33325Z" fill="#5E5959"/>
</g>
</svg>
