<svg width="16" height="17" viewBox="0 0 16 17" fill="none" xmlns="http://www.w3.org/2000/svg">
<mask id="mask0_925_1165" style="mask-type:alpha" maskUnits="userSpaceOnUse" x="0" y="0" width="16" height="17">
<rect y="0.0419922" width="16" height="16" fill="#D9D9D9"/>
</mask>
<g mask="url(#mask0_925_1165)">
<path d="M8.00008 10.7087C8.83342 10.7087 9.54175 10.4171 10.1251 9.83374C10.7084 9.25041 11.0001 8.54207 11.0001 7.70874C11.0001 6.87541 10.7084 6.16707 10.1251 5.58374C9.54175 5.00041 8.83342 4.70874 8.00008 4.70874C7.16675 4.70874 6.45842 5.00041 5.87508 5.58374C5.29175 6.16707 5.00008 6.87541 5.00008 7.70874C5.00008 8.54207 5.29175 9.25041 5.87508 9.83374C6.45842 10.4171 7.16675 10.7087 8.00008 10.7087ZM8.00008 9.50874C7.50008 9.50874 7.07508 9.33374 6.72508 8.98374C6.37508 8.63374 6.20008 8.20874 6.20008 7.70874C6.20008 7.20874 6.37508 6.78374 6.72508 6.43374C7.07508 6.08374 7.50008 5.90874 8.00008 5.90874C8.50008 5.90874 8.92508 6.08374 9.27508 6.43374C9.62508 6.78374 9.80008 7.20874 9.80008 7.70874C9.80008 8.20874 9.62508 8.63374 9.27508 8.98374C8.92508 9.33374 8.50008 9.50874 8.00008 9.50874ZM8.00008 12.7087C6.37786 12.7087 4.90008 12.256 3.56675 11.3504C2.23341 10.4449 1.26675 9.23096 0.666748 7.70874C1.26675 6.18652 2.23341 4.97263 3.56675 4.06707C4.90008 3.16152 6.37786 2.70874 8.00008 2.70874C9.6223 2.70874 11.1001 3.16152 12.4334 4.06707C13.7667 4.97263 14.7334 6.18652 15.3334 7.70874C14.7334 9.23096 13.7667 10.4449 12.4334 11.3504C11.1001 12.256 9.6223 12.7087 8.00008 12.7087ZM8.00008 11.3754C9.25564 11.3754 10.4084 11.0449 11.4584 10.3837C12.5084 9.72263 13.3112 8.83096 13.8667 7.70874C13.3112 6.58652 12.5084 5.69485 11.4584 5.03374C10.4084 4.37263 9.25564 4.04207 8.00008 4.04207C6.74453 4.04207 5.59175 4.37263 4.54175 5.03374C3.49175 5.69485 2.68897 6.58652 2.13341 7.70874C2.68897 8.83096 3.49175 9.72263 4.54175 10.3837C5.59175 11.0449 6.74453 11.3754 8.00008 11.3754Z" fill="#BEBABA"/>
</g>
</svg>
