<svg width="24" height="15" viewBox="0 0 24 15" fill="none" xmlns="http://www.w3.org/2000/svg">
<path d="M23.2575 10H23.2625H23.2525H23.2575ZM22.5525 9.48C22.6525 9.798 22.9405 9.998 23.2575 10C23.3275 10 23.4045 9.98 23.4825 9.96C23.8725 9.84 24.0925 9.41 23.9625 9.02C23.9325 8.93 20.9325 0 12.0005 0C3.06849 0 0.0674892 8.93 0.0374892 9.02C-0.0925108 9.41 0.127489 9.83 0.517489 9.96C0.917489 10.09 1.33749 9.87 1.46749 9.48L1.47049 9.475C1.60349 9.085 4.20749 1.5 12.0105 1.5C19.8525 1.5 22.4425 9.15 22.5525 9.48ZM7.00049 10C7.00049 8.67392 7.52727 7.40215 8.46496 6.46447C9.40264 5.52678 10.6744 5 12.0005 5C13.3266 5 14.5983 5.52678 15.536 6.46447C16.4737 7.40215 17.0005 8.67392 17.0005 10C17.0005 11.3261 16.4737 12.5979 15.536 13.5355C14.5983 14.4732 13.3266 15 12.0005 15C10.6744 15 9.40264 14.4732 8.46496 13.5355C7.52727 12.5979 7.00049 11.3261 7.00049 10Z" fill="#5E5959"/>
</svg>
