<svg width="16" height="16" viewBox="0 0 16 16" fill="none" xmlns="http://www.w3.org/2000/svg">
<g clip-path="url(#clip0_1280_164)">
<rect width="15.6352" height="16" fill="#272626"/>
<path d="M15.627 8.14945C15.627 7.49394 15.5738 7.01559 15.4587 6.51953H7.97339V9.47819H12.3671C12.2785 10.2135 11.8002 11.3208 10.7372 12.0648L10.7223 12.1639L13.089 13.9973L13.253 14.0137C14.7589 12.6229 15.627 10.5766 15.627 8.14945Z" fill="#4285F4"/>
<path d="M7.97346 15.9446C10.126 15.9446 11.9331 15.2359 13.253 14.0134L10.7372 12.0646C10.064 12.534 9.16045 12.8618 7.97346 12.8618C5.86518 12.8618 4.07581 11.4711 3.43794 9.54883L3.34445 9.55677L0.883502 11.4613L0.851318 11.5508C2.16234 14.1551 4.85529 15.9446 7.97346 15.9446Z" fill="#34A853"/>
<path d="M3.43786 9.54936C3.26956 9.0533 3.17215 8.52176 3.17215 7.97257C3.17215 7.42332 3.26956 6.89184 3.42901 6.39577L3.42455 6.29013L0.932763 4.35498L0.851236 4.39376C0.3109 5.47449 0.000854492 6.68811 0.000854492 7.97257C0.000854492 9.25703 0.3109 10.4706 0.851236 11.5513L3.43786 9.54936Z" fill="#FBBC05"/>
<path d="M7.97333 3.08269C9.47037 3.08269 10.4802 3.72934 11.056 4.26974L13.306 2.07286C11.9242 0.788397 10.1259 0 7.97333 0C4.85517 0 2.16222 1.78937 0.851196 4.39371L3.42897 6.39573C4.07568 4.47347 5.86506 3.08269 7.97333 3.08269Z" fill="#EB4335"/>
</g>
<defs>
<clipPath id="clip0_1280_164">
<rect width="15.6352" height="16" fill="white"/>
</clipPath>
</defs>
</svg>
