<svg width="24" height="24" viewBox="0 0 24 24" fill="none" xmlns="http://www.w3.org/2000/svg">
<path d="M5 15C4.71667 15 4.47933 14.904 4.288 14.712C4.09667 14.52 4.00067 14.2827 4 14C4 13.7167 4.096 13.4793 4.288 13.288C4.48 13.0967 4.71733 13.0007 5 13H19C19.2833 13 19.521 13.096 19.713 13.288C19.905 13.48 20.0007 13.7173 20 14C20 14.2833 19.904 14.521 19.712 14.713C19.52 14.905 19.2827 15.0007 19 15H5ZM5 11C4.71667 11 4.47933 10.904 4.288 10.712C4.09667 10.52 4.00067 10.2827 4 10C4 9.71667 4.096 9.47933 4.288 9.288C4.48 9.09667 4.71733 9.00067 5 9H19C19.2833 9 19.521 9.096 19.713 9.288C19.905 9.48 20.0007 9.71733 20 10C20 10.2833 19.904 10.521 19.712 10.713C19.52 10.905 19.2827 11.0007 19 11H5Z" fill="#E8751A"/>
</svg>
