<svg width="16" height="16" viewBox="0 0 16 16" fill="none" xmlns="http://www.w3.org/2000/svg">
<mask id="mask0_925_1276" style="mask-type:alpha" maskUnits="userSpaceOnUse" x="0" y="0" width="16" height="16">
<rect width="16" height="16" fill="#D9D9D9"/>
</mask>
<g mask="url(#mask0_925_1276)">
<path d="M7.99996 7.99992C8.36663 7.99992 8.68052 7.86936 8.94163 7.60825C9.20274 7.34714 9.33329 7.03325 9.33329 6.66658C9.33329 6.29992 9.20274 5.98603 8.94163 5.72492C8.68052 5.46381 8.36663 5.33325 7.99996 5.33325C7.63329 5.33325 7.3194 5.46381 7.05829 5.72492C6.79718 5.98603 6.66663 6.29992 6.66663 6.66658C6.66663 7.03325 6.79718 7.34714 7.05829 7.60825C7.3194 7.86936 7.63329 7.99992 7.99996 7.99992ZM7.99996 12.8999C9.35552 11.6555 10.3611 10.5249 11.0166 9.50825C11.6722 8.49158 12 7.58881 12 6.79992C12 5.58881 11.6138 4.59714 10.8416 3.82492C10.0694 3.0527 9.12218 2.66659 7.99996 2.66659C6.87774 2.66659 5.93051 3.0527 5.15829 3.82492C4.38607 4.59714 3.99996 5.58881 3.99996 6.79992C3.99996 7.58881 4.32774 8.49158 4.98329 9.50825C5.63885 10.5249 6.6444 11.6555 7.99996 12.8999ZM7.99996 14.6666C6.21107 13.1444 4.87496 11.7305 3.99163 10.4249C3.10829 9.11936 2.66663 7.91103 2.66663 6.79992C2.66663 5.13325 3.20274 3.80547 4.27496 2.81659C5.34718 1.8277 6.58885 1.33325 7.99996 1.33325C9.41107 1.33325 10.6527 1.8277 11.725 2.81659C12.7972 3.80547 13.3333 5.13325 13.3333 6.79992C13.3333 7.91103 12.8916 9.11936 12.0083 10.4249C11.125 11.7305 9.78885 13.1444 7.99996 14.6666Z" fill="#5E5959"/>
</g>
</svg>
