<svg width="106" height="107" viewBox="0 0 106 107" fill="none" xmlns="http://www.w3.org/2000/svg">
<path fill-rule="evenodd" clip-rule="evenodd" d="M53.6209 1.30905C55.0002 -0.416623 57.5529 -0.404222 59.115 1.15788L81.7424 23.7853L104.37 46.4127C105.932 47.9748 105.944 50.5275 104.219 51.9068C101.58 54.0158 98.6522 55.7472 95.519 57.045C91.1513 58.8541 86.47 59.7853 81.7424 59.7853C77.0149 59.7853 72.3336 58.8541 67.9658 57.045C63.5981 55.2358 59.6295 52.5841 56.2866 49.2411C52.9437 45.8982 50.2919 41.9296 48.4828 37.5619C46.6736 33.1942 45.7424 28.5129 45.7424 23.7853C45.7424 19.0577 46.6736 14.3764 48.4828 10.0087C49.7806 6.87556 51.5119 3.9478 53.6209 1.30905ZM4.44444 34.5087C1.98985 34.5087 0 36.4985 0 38.9531V94.5087C0 101.136 5.37258 106.509 12 106.509H67.5556C70.0102 106.509 72 104.519 72 102.064C72 64.7543 41.7543 34.5087 4.44444 34.5087Z" fill="black"/>
</svg>
