<svg width="24" height="25" viewBox="0 0 24 25" fill="none" xmlns="http://www.w3.org/2000/svg">
<path fill-rule="evenodd" clip-rule="evenodd" d="M12.0826 0.549368C12.3934 0.160515 12.9686 0.16331 13.3206 0.515303L18.4193 5.61403L23.5181 10.7127C23.8701 11.0647 23.8728 11.64 23.484 11.9507C22.8894 12.426 22.2297 12.8161 21.5237 13.1086C20.5395 13.5162 19.4846 13.726 18.4193 13.726C17.354 13.726 16.2992 13.5162 15.315 13.1086C14.3308 12.7009 13.4365 12.1034 12.6833 11.3501C11.93 10.5968 11.3325 9.70256 10.9248 8.71836C10.5171 7.73417 10.3073 6.67931 10.3073 5.61403C10.3073 4.54874 10.5171 3.49389 10.9248 2.50969C11.2172 1.80369 11.6074 1.14397 12.0826 0.549368ZM1.00148 8.03036C0.44838 8.03036 0 8.47874 0 9.03185V21.5504C0 23.0438 1.21062 24.2544 2.70401 24.2544H15.2226C15.7757 24.2544 16.224 23.806 16.224 23.2529C16.224 14.8457 9.40866 8.03036 1.00148 8.03036Z" fill="white"/>
</svg>
