<svg width="20" height="20" viewBox="0 0 20 20" fill="none" xmlns="http://www.w3.org/2000/svg">
<mask id="mask0_2428_136" style="mask-type:alpha" maskUnits="userSpaceOnUse" x="0" y="0" width="20" height="20">
<rect width="20" height="20" fill="#D9D9D9"/>
</mask>
<g mask="url(#mask0_2428_136)">
<path d="M12.9167 9.16675C13.264 9.16675 13.5591 9.04522 13.8022 8.80216C14.0452 8.55911 14.1667 8.26397 14.1667 7.91675C14.1667 7.56953 14.0452 7.27439 13.8022 7.03133C13.5591 6.78828 13.264 6.66675 12.9167 6.66675C12.5695 6.66675 12.2744 6.78828 12.0313 7.03133C11.7883 7.27439 11.6667 7.56953 11.6667 7.91675C11.6667 8.26397 11.7883 8.55911 12.0313 8.80216C12.2744 9.04522 12.5695 9.16675 12.9167 9.16675ZM7.08341 9.16675C7.43064 9.16675 7.72578 9.04522 7.96883 8.80216C8.21189 8.55911 8.33341 8.26397 8.33341 7.91675C8.33341 7.56953 8.21189 7.27439 7.96883 7.03133C7.72578 6.78828 7.43064 6.66675 7.08341 6.66675C6.73619 6.66675 6.44105 6.78828 6.198 7.03133C5.95494 7.27439 5.83341 7.56953 5.83341 7.91675C5.83341 8.26397 5.95494 8.55911 6.198 8.80216C6.44105 9.04522 6.73619 9.16675 7.08341 9.16675ZM10.0001 14.5834C10.9445 14.5834 11.8022 14.3161 12.573 13.7813C13.3438 13.2466 13.9029 12.5417 14.2501 11.6667H5.75008C6.0973 12.5417 6.65633 13.2466 7.42716 13.7813C8.198 14.3161 9.05564 14.5834 10.0001 14.5834ZM10.0001 18.3334C8.8473 18.3334 7.76397 18.1147 6.75008 17.6772C5.73619 17.2397 4.85425 16.6459 4.10425 15.8959C3.35425 15.1459 2.7605 14.264 2.323 13.2501C1.8855 12.2362 1.66675 11.1529 1.66675 10.0001C1.66675 8.8473 1.8855 7.76397 2.323 6.75008C2.7605 5.73619 3.35425 4.85425 4.10425 4.10425C4.85425 3.35425 5.73619 2.7605 6.75008 2.323C7.76397 1.8855 8.8473 1.66675 10.0001 1.66675C11.1529 1.66675 12.2362 1.8855 13.2501 2.323C14.264 2.7605 15.1459 3.35425 15.8959 4.10425C16.6459 4.85425 17.2397 5.73619 17.6772 6.75008C18.1147 7.76397 18.3334 8.8473 18.3334 10.0001C18.3334 11.1529 18.1147 12.2362 17.6772 13.2501C17.2397 14.264 16.6459 15.1459 15.8959 15.8959C15.1459 16.6459 14.264 17.2397 13.2501 17.6772C12.2362 18.1147 11.1529 18.3334 10.0001 18.3334ZM10.0001 16.6667C11.8612 16.6667 13.4376 16.0209 14.7292 14.7292C16.0209 13.4376 16.6667 11.8612 16.6667 10.0001C16.6667 8.13897 16.0209 6.56258 14.7292 5.27091C13.4376 3.97925 11.8612 3.33341 10.0001 3.33341C8.13897 3.33341 6.56258 3.97925 5.27091 5.27091C3.97925 6.56258 3.33341 8.13897 3.33341 10.0001C3.33341 11.8612 3.97925 13.4376 5.27091 14.7292C6.56258 16.0209 8.13897 16.6667 10.0001 16.6667Z" fill="white"/>
</g>
</svg>
