<svg width="17" height="17" viewBox="0 0 17 17" fill="none" xmlns="http://www.w3.org/2000/svg">
<mask id="mask0_925_1300" style="mask-type:alpha" maskUnits="userSpaceOnUse" x="0" y="0" width="17" height="17">
<rect x="0.5" y="0.5" width="16" height="16" fill="#D9D9D9"/>
</mask>
<g mask="url(#mask0_925_1300)">
<path d="M3.83333 13.1667H4.78333L11.3 6.65L10.35 5.7L3.83333 12.2167V13.1667ZM2.5 14.5V11.6667L11.3 2.88333C11.4333 2.76111 11.5806 2.66667 11.7417 2.6C11.9028 2.53333 12.0722 2.5 12.25 2.5C12.4278 2.5 12.6 2.53333 12.7667 2.6C12.9333 2.66667 13.0778 2.76667 13.2 2.9L14.1167 3.83333C14.25 3.95556 14.3472 4.1 14.4083 4.26667C14.4694 4.43333 14.5 4.6 14.5 4.76667C14.5 4.94444 14.4694 5.11389 14.4083 5.275C14.3472 5.43611 14.25 5.58333 14.1167 5.71667L5.33333 14.5H2.5ZM10.8167 6.18333L10.35 5.7L11.3 6.65L10.8167 6.18333Z" fill="white"/>
</g>
</svg>
