<svg width="16" height="16" viewBox="0 0 16 16" fill="none" xmlns="http://www.w3.org/2000/svg">
<mask id="mask0_925_1279" style="mask-type:alpha" maskUnits="userSpaceOnUse" x="0" y="0" width="16" height="16">
<rect width="16" height="16" fill="#D9D9D9"/>
</mask>
<g mask="url(#mask0_925_1279)">
<path d="M4.56594 15.5238C4.19928 15.5238 3.88539 15.3933 3.62428 15.1322C3.36317 14.8711 3.23261 14.5572 3.23261 14.1905V2.19051C3.23261 1.82384 3.36317 1.50996 3.62428 1.24884C3.88539 0.987733 4.19928 0.857178 4.56594 0.857178H11.2326C11.5993 0.857178 11.9132 0.987733 12.1743 1.24884C12.4354 1.50996 12.5659 1.82384 12.5659 2.19051V14.1905C12.5659 14.5572 12.4354 14.8711 12.1743 15.1322C11.9132 15.3933 11.5993 15.5238 11.2326 15.5238H4.56594ZM4.56594 12.1905V14.1905H11.2326V12.1905H4.56594ZM4.56594 12.1905H11.2326V2.85718H7.89928H4.56594V12.1905ZM4.56594 2.85718H11.2326V2.19051H4.56594V2.85718Z" fill="#5E5959"/>
</g>
</svg>
