<svg width="20" height="20" viewBox="0 0 20 20" fill="none" xmlns="http://www.w3.org/2000/svg">
<path d="M15.0259 13.8473L18.5951 17.4157L17.4159 18.5948L13.8476 15.0257C12.5199 16.09 10.8684 16.6689 9.16675 16.6665C5.02675 16.6665 1.66675 13.3065 1.66675 9.1665C1.66675 5.0265 5.02675 1.6665 9.16675 1.6665C13.3067 1.6665 16.6667 5.0265 16.6667 9.1665C16.6692 10.8682 16.0903 12.5196 15.0259 13.8473ZM13.3542 13.229C14.4118 12.1414 15.0025 10.6835 15.0001 9.1665C15.0001 5.944 12.3892 3.33317 9.16675 3.33317C5.94425 3.33317 3.33341 5.944 3.33341 9.1665C3.33341 12.389 5.94425 14.9998 9.16675 14.9998C10.6838 15.0022 12.1417 14.4116 13.2292 13.354L13.3542 13.229Z" fill="#5E5959"/>
</svg>
