<svg width="24" height="24" viewBox="0 0 24 24" fill="none" xmlns="http://www.w3.org/2000/svg">
<mask id="mask0_551_77" style="mask-type:alpha" maskUnits="userSpaceOnUse" x="0" y="0" width="24" height="24">
<rect width="24" height="24" fill="#D9D9D9"/>
</mask>
<g mask="url(#mask0_551_77)">
<path d="M8 19V16H14V13.5H9V10.5H14V8H8V5H14C14.8333 5 15.5417 5.29167 16.125 5.875C16.7083 6.45833 17 7.16667 17 8V9.9C17 10.4833 16.7958 10.9792 16.3875 11.3875C15.9792 11.7958 15.4833 12 14.9 12C15.4833 12 15.9792 12.2042 16.3875 12.6125C16.7958 13.0208 17 13.5167 17 14.1V16C17 16.8333 16.7083 17.5417 16.125 18.125C15.5417 18.7083 14.8333 19 14 19H8Z" fill="white"/>
</g>
</svg>
